<mxfile host="65bd71144e">
    <diagram id="0I90K17fJraaCE6ju3kr" name="Page-1">
        <mxGraphModel dx="671" dy="260" grid="1" gridSize="10" guides="1" tooltips="1" connect="1" arrows="1" fold="1" page="1" pageScale="1" pageWidth="850" pageHeight="1100" math="0" shadow="0">
            <root>
                <mxCell id="0"/>
                <mxCell id="1" parent="0"/>
                <mxCell id="2" value="Maison" style="rounded=0;whiteSpace=wrap;html=1;" vertex="1" parent="1">
                    <mxGeometry x="110" y="50" width="120" height="40" as="geometry"/>
                </mxCell>
                <mxCell id="3" value="adresse&lt;br&gt;is_vendu" style="rounded=0;whiteSpace=wrap;html=1;" vertex="1" parent="1">
                    <mxGeometry x="110" y="90" width="120" height="40" as="geometry"/>
                </mxCell>
                <mxCell id="4" value="Personne" style="rounded=0;whiteSpace=wrap;html=1;" vertex="1" parent="1">
                    <mxGeometry x="290" y="50" width="120" height="40" as="geometry"/>
                </mxCell>
                <mxCell id="5" value="nom" style="rounded=0;whiteSpace=wrap;html=1;" vertex="1" parent="1">
                    <mxGeometry x="290" y="90" width="120" height="40" as="geometry"/>
                </mxCell>
                <mxCell id="6" value="def acheter" style="rounded=0;whiteSpace=wrap;html=1;" vertex="1" parent="1">
                    <mxGeometry x="290" y="130" width="120" height="40" as="geometry"/>
                </mxCell>
                <mxCell id="10" style="edgeStyle=none;html=1;entryX=0.5;entryY=1;entryDx=0;entryDy=0;" edge="1" parent="1" target="3">
                    <mxGeometry relative="1" as="geometry">
                        <mxPoint x="170" y="210" as="sourcePoint"/>
                    </mxGeometry>
                </mxCell>
                <mxCell id="9" value="{&lt;br&gt;adresse : &quot;75 rue ...&quot;&lt;br&gt;is_vendu : False&lt;br&gt;}" style="text;html=1;strokeColor=none;fillColor=none;align=center;verticalAlign=middle;whiteSpace=wrap;rounded=0;" vertex="1" parent="1">
                    <mxGeometry x="105" y="230" width="130" height="30" as="geometry"/>
                </mxCell>
                <mxCell id="12" style="edgeStyle=none;html=1;entryX=0.5;entryY=1;entryDx=0;entryDy=0;" edge="1" parent="1" target="6">
                    <mxGeometry relative="1" as="geometry">
                        <mxPoint x="350" y="220" as="sourcePoint"/>
                    </mxGeometry>
                </mxCell>
                <mxCell id="11" value="{&lt;br&gt;nom : &quot;Alain&quot;&lt;br&gt;}" style="text;html=1;strokeColor=none;fillColor=none;align=center;verticalAlign=middle;whiteSpace=wrap;rounded=0;" vertex="1" parent="1">
                    <mxGeometry x="285" y="230" width="130" height="30" as="geometry"/>
                </mxCell>
                <mxCell id="13" value="m" style="text;html=1;strokeColor=none;fillColor=none;align=center;verticalAlign=middle;whiteSpace=wrap;rounded=0;" vertex="1" parent="1">
                    <mxGeometry x="30" y="230" width="60" height="30" as="geometry"/>
                </mxCell>
                <mxCell id="14" value="p" style="text;html=1;strokeColor=none;fillColor=none;align=center;verticalAlign=middle;whiteSpace=wrap;rounded=0;" vertex="1" parent="1">
                    <mxGeometry x="400" y="230" width="60" height="30" as="geometry"/>
                </mxCell>
                <mxCell id="15" value="p.acheter(m)" style="text;html=1;strokeColor=none;fillColor=none;align=center;verticalAlign=middle;whiteSpace=wrap;rounded=0;" vertex="1" parent="1">
                    <mxGeometry x="320" y="290" width="60" height="30" as="geometry"/>
                </mxCell>
                <mxCell id="16" value="m.is_vendu = True" style="text;html=1;strokeColor=none;fillColor=none;align=center;verticalAlign=middle;whiteSpace=wrap;rounded=0;" vertex="1" parent="1">
                    <mxGeometry x="425" y="135" width="130" height="30" as="geometry"/>
                </mxCell>
            </root>
        </mxGraphModel>
    </diagram>
</mxfile>